<?xml version="1.0" encoding="UTF-8"?>
<svg width="400px" height="300px" viewBox="0 0 400 300" version="1.1" xmlns="http://www.w3.org/2000/svg">
    <title>Laptop</title>
    <g stroke="none" stroke-width="1" fill="none" fill-rule="evenodd">
        <g transform="translate(60, 30)" fill="#F1F1F1" fill-rule="nonzero">
            <path d="M280,180 L280,20 C280,8.954305 271.045695,0 260,0 L20,0 C8.954305,0 0,8.954305 0,20 L0,180 L280,180 Z M20,10 L260,10 C265.522847,10 270,14.4771525 270,20 L270,170 L10,170 L10,20 C10,14.4771525 14.4771525,10 20,10 Z"></path>
            <path d="M-2.84217094e-14,180 L-2.84217094e-14,190 C-2.84217094e-14,201.045695 8.954305,210 20,210 L260,210 C271.045695,210 280,201.045695 280,190 L280,180 L300,180 L300,190 C300,212.09139 282.09139,230 260,230 L20,230 C-2.09139,230 -20,212.09139 -20,190 L-20,180 L-2.84217094e-14,180 Z"></path>
        </g>
    </g>
</svg>
