<?xml version="1.0" encoding="UTF-8"?>
<svg width="200px" height="100px" viewBox="0 0 200 100" version="1.1" xmlns="http://www.w3.org/2000/svg">
    <title>NextJS</title>
    <g stroke="none" stroke-width="1" fill="none" fill-rule="evenodd">
        <g fill="#F1F1F1" fill-rule="nonzero">
            <path d="M75.5,0 C33.7,0 0,33.7 0,75.5 C0,117.3 33.7,151 75.5,151 C91.1,151 105.6,146.2 117.5,138 L53.4,49.8 L53.4,111.5 L42.1,111.5 L42.1,30.7 L55.8,30.7 L129.2,131.4 C143.6,116.6 151,96.8 151,75.5 C151,33.7 117.3,0 75.5,0 Z M109.4,102.9 L109.4,30.7 L120.7,30.7 L120.7,102.9 L109.4,102.9 Z" transform="translate(25, 0) scale(0.5, 0.5)"></path>
        </g>
    </g>
</svg>
