<?xml version="1.0" encoding="UTF-8"?>
<svg width="200px" height="300px" viewBox="0 0 200 300" version="1.1" xmlns="http://www.w3.org/2000/svg">
    <title>Pencil</title>
    <g stroke="none" stroke-width="1" fill="none" fill-rule="evenodd">
        <g transform="translate(50, 0)" fill="#F1F1F1" fill-rule="nonzero">
            <path d="M80,0 L20,0 C8.954305,0 0,8.954305 0,20 L0,250 C0,261.045695 8.954305,270 20,270 L80,270 C91.045695,270 100,261.045695 100,250 L100,20 C100,8.954305 91.045695,0 80,0 Z M90,250 C90,255.522847 85.522847,260 80,260 L20,260 C14.477153,260 10,255.522847 10,250 L10,20 C10,14.477153 14.477153,10 20,10 L80,10 C85.522847,10 90,14.477153 90,20 L90,250 Z"></path>
            <path d="M50,270 L50,290 C50,295.522847 54.477153,300 60,300 C65.522847,300 70,295.522847 70,290 L70,270 L50,270 Z"></path>
        </g>
    </g>
</svg>
