<svg xmlns="http://www.w3.org/2000/svg" width="40" height="40" viewBox="0 0 40 40" fill="none" stroke="currentColor" stroke-width="1.5" stroke-linecap="round" stroke-linejoin="round">
  <path d="M20 35C28.2843 35 35 28.2843 35 20C35 11.7157 28.2843 5 20 5C11.7157 5 5 11.7157 5 20C5 23.3565 6.05616 26.4585 7.85855 28.9833L6 35L12.0167 33.1414C14.5415 34.9438 17.6435 36 21 36" />
  <path d="M28 22C28 22.5523 27.5523 23 27 23C26.4477 23 26 22.5523 26 22C26 21.4477 26.4477 21 27 21C27.5523 21 28 21.4477 28 22Z" fill="currentColor" />
  <path d="M22 22C22 22.5523 21.5523 23 21 23C20.4477 23 20 22.5523 20 22C20 21.4477 20.4477 21 21 21C21.5523 21 22 21.4477 22 22Z" fill="currentColor" />
  <path d="M16 22C16 22.5523 15.5523 23 15 23C14.4477 23 14 22.5523 14 22C14 21.4477 14.4477 21 15 21C15.5523 21 16 21.4477 16 22Z" fill="currentColor" />
</svg>
